<mxfile host="Electron" modified="2024-02-19T14:48:13.357Z" agent="Mozilla/5.0 (Macintosh; Intel Mac OS X 10_15_7) AppleWebKit/537.36 (KHTML, like Gecko) draw.io/23.1.5 Chrome/120.0.6099.109 Electron/28.1.0 Safari/537.36" etag="5pA1yrvu1gYNFKWArCah" version="23.1.5" type="device">
  <diagram name="Page-1" id="f_Kwi-vJAHRdpP_BXKT3">
    <mxGraphModel dx="1877" dy="1244" grid="1" gridSize="10" guides="1" tooltips="1" connect="1" arrows="1" fold="1" page="1" pageScale="1" pageWidth="850" pageHeight="1100" math="0" shadow="0">
      <root>
        <mxCell id="0" />
        <mxCell id="1" parent="0" />
        <mxCell id="HfVcjAnwlJ-21kZ9LWG6-4" style="edgeStyle=orthogonalEdgeStyle;rounded=0;orthogonalLoop=1;jettySize=auto;html=1;entryX=0;entryY=0.5;entryDx=0;entryDy=0;" edge="1" parent="1" source="HfVcjAnwlJ-21kZ9LWG6-1" target="HfVcjAnwlJ-21kZ9LWG6-3">
          <mxGeometry relative="1" as="geometry" />
        </mxCell>
        <mxCell id="HfVcjAnwlJ-21kZ9LWG6-20" style="edgeStyle=orthogonalEdgeStyle;rounded=0;orthogonalLoop=1;jettySize=auto;html=1;entryX=0;entryY=0.5;entryDx=0;entryDy=0;" edge="1" parent="1" source="HfVcjAnwlJ-21kZ9LWG6-1" target="HfVcjAnwlJ-21kZ9LWG6-18">
          <mxGeometry relative="1" as="geometry">
            <Array as="points">
              <mxPoint x="210" y="680" />
              <mxPoint x="210" y="615" />
            </Array>
          </mxGeometry>
        </mxCell>
        <mxCell id="HfVcjAnwlJ-21kZ9LWG6-1" value="&lt;font style=&quot;font-size: 20px;&quot;&gt;h[t-1]&lt;/font&gt;" style="text;html=1;align=center;verticalAlign=middle;whiteSpace=wrap;rounded=0;" vertex="1" parent="1">
          <mxGeometry x="130" y="665" width="60" height="30" as="geometry" />
        </mxCell>
        <mxCell id="HfVcjAnwlJ-21kZ9LWG6-5" style="edgeStyle=orthogonalEdgeStyle;rounded=0;orthogonalLoop=1;jettySize=auto;html=1;entryX=0.5;entryY=1;entryDx=0;entryDy=0;" edge="1" parent="1" source="HfVcjAnwlJ-21kZ9LWG6-2" target="HfVcjAnwlJ-21kZ9LWG6-3">
          <mxGeometry relative="1" as="geometry" />
        </mxCell>
        <mxCell id="HfVcjAnwlJ-21kZ9LWG6-2" value="&lt;font style=&quot;font-size: 20px;&quot;&gt;W&lt;sub&gt;h&lt;/sub&gt;&lt;/font&gt;" style="text;html=1;align=center;verticalAlign=middle;resizable=0;points=[];autosize=1;strokeColor=none;fillColor=none;" vertex="1" parent="1">
          <mxGeometry x="230" y="720" width="50" height="40" as="geometry" />
        </mxCell>
        <mxCell id="HfVcjAnwlJ-21kZ9LWG6-12" style="edgeStyle=orthogonalEdgeStyle;rounded=0;orthogonalLoop=1;jettySize=auto;html=1;entryX=0;entryY=0.5;entryDx=0;entryDy=0;" edge="1" parent="1" source="HfVcjAnwlJ-21kZ9LWG6-3">
          <mxGeometry relative="1" as="geometry">
            <mxPoint x="370.0000000000002" y="680" as="targetPoint" />
          </mxGeometry>
        </mxCell>
        <mxCell id="HfVcjAnwlJ-21kZ9LWG6-3" value="&lt;span style=&quot;font-size: 20px;&quot;&gt;⨉&lt;/span&gt;" style="ellipse;whiteSpace=wrap;html=1;aspect=fixed;" vertex="1" parent="1">
          <mxGeometry x="235" y="660" width="40" height="40" as="geometry" />
        </mxCell>
        <mxCell id="HfVcjAnwlJ-21kZ9LWG6-38" style="edgeStyle=orthogonalEdgeStyle;rounded=0;orthogonalLoop=1;jettySize=auto;html=1;entryX=0;entryY=0.5;entryDx=0;entryDy=0;" edge="1" parent="1" source="HfVcjAnwlJ-21kZ9LWG6-6" target="HfVcjAnwlJ-21kZ9LWG6-21">
          <mxGeometry relative="1" as="geometry" />
        </mxCell>
        <mxCell id="HfVcjAnwlJ-21kZ9LWG6-39" style="edgeStyle=orthogonalEdgeStyle;rounded=0;orthogonalLoop=1;jettySize=auto;html=1;entryX=0;entryY=0.5;entryDx=0;entryDy=0;" edge="1" parent="1" source="HfVcjAnwlJ-21kZ9LWG6-6" target="HfVcjAnwlJ-21kZ9LWG6-7">
          <mxGeometry relative="1" as="geometry" />
        </mxCell>
        <mxCell id="HfVcjAnwlJ-21kZ9LWG6-6" value="&lt;font style=&quot;font-size: 20px;&quot;&gt;x[t]&lt;/font&gt;" style="text;html=1;align=center;verticalAlign=middle;whiteSpace=wrap;rounded=0;" vertex="1" parent="1">
          <mxGeometry x="130" y="862.5" width="60" height="30" as="geometry" />
        </mxCell>
        <mxCell id="HfVcjAnwlJ-21kZ9LWG6-13" style="edgeStyle=orthogonalEdgeStyle;rounded=0;orthogonalLoop=1;jettySize=auto;html=1;entryX=0.5;entryY=1;entryDx=0;entryDy=0;" edge="1" parent="1" source="HfVcjAnwlJ-21kZ9LWG6-7" target="HfVcjAnwlJ-21kZ9LWG6-11">
          <mxGeometry relative="1" as="geometry" />
        </mxCell>
        <mxCell id="HfVcjAnwlJ-21kZ9LWG6-35" style="edgeStyle=orthogonalEdgeStyle;rounded=0;orthogonalLoop=1;jettySize=auto;html=1;exitX=0.5;exitY=0;exitDx=0;exitDy=0;" edge="1" parent="1" source="HfVcjAnwlJ-21kZ9LWG6-7">
          <mxGeometry relative="1" as="geometry">
            <mxPoint x="250" y="810.0000000000002" as="targetPoint" />
          </mxGeometry>
        </mxCell>
        <mxCell id="HfVcjAnwlJ-21kZ9LWG6-7" value="&lt;span style=&quot;font-size: 20px;&quot;&gt;⨉&lt;/span&gt;" style="ellipse;whiteSpace=wrap;html=1;aspect=fixed;" vertex="1" parent="1">
          <mxGeometry x="230" y="775" width="40" height="40" as="geometry" />
        </mxCell>
        <mxCell id="HfVcjAnwlJ-21kZ9LWG6-37" style="edgeStyle=orthogonalEdgeStyle;rounded=0;orthogonalLoop=1;jettySize=auto;html=1;" edge="1" parent="1" source="HfVcjAnwlJ-21kZ9LWG6-8" target="HfVcjAnwlJ-21kZ9LWG6-7">
          <mxGeometry relative="1" as="geometry" />
        </mxCell>
        <mxCell id="HfVcjAnwlJ-21kZ9LWG6-8" value="&lt;font style=&quot;font-size: 20px;&quot;&gt;W&lt;/font&gt;&lt;font style=&quot;font-size: 16.6667px;&quot;&gt;c&lt;/font&gt;" style="text;html=1;align=center;verticalAlign=middle;resizable=0;points=[];autosize=1;strokeColor=none;fillColor=none;" vertex="1" parent="1">
          <mxGeometry x="225" y="840" width="50" height="40" as="geometry" />
        </mxCell>
        <mxCell id="HfVcjAnwlJ-21kZ9LWG6-17" style="edgeStyle=orthogonalEdgeStyle;rounded=0;orthogonalLoop=1;jettySize=auto;html=1;" edge="1" parent="1" source="HfVcjAnwlJ-21kZ9LWG6-11" target="HfVcjAnwlJ-21kZ9LWG6-16">
          <mxGeometry relative="1" as="geometry" />
        </mxCell>
        <mxCell id="HfVcjAnwlJ-21kZ9LWG6-11" value="&lt;span style=&quot;font-size: 20px;&quot;&gt;σ&lt;/span&gt;" style="ellipse;whiteSpace=wrap;html=1;aspect=fixed;" vertex="1" parent="1">
          <mxGeometry x="370" y="660" width="40" height="40" as="geometry" />
        </mxCell>
        <mxCell id="HfVcjAnwlJ-21kZ9LWG6-19" style="edgeStyle=orthogonalEdgeStyle;rounded=0;orthogonalLoop=1;jettySize=auto;html=1;entryX=0.5;entryY=1;entryDx=0;entryDy=0;" edge="1" parent="1" source="HfVcjAnwlJ-21kZ9LWG6-16" target="HfVcjAnwlJ-21kZ9LWG6-18">
          <mxGeometry relative="1" as="geometry" />
        </mxCell>
        <mxCell id="HfVcjAnwlJ-21kZ9LWG6-26" style="edgeStyle=orthogonalEdgeStyle;rounded=0;orthogonalLoop=1;jettySize=auto;html=1;entryX=0.5;entryY=0;entryDx=0;entryDy=0;" edge="1" parent="1" source="HfVcjAnwlJ-21kZ9LWG6-16" target="HfVcjAnwlJ-21kZ9LWG6-25">
          <mxGeometry relative="1" as="geometry" />
        </mxCell>
        <mxCell id="HfVcjAnwlJ-21kZ9LWG6-16" value="&lt;font style=&quot;font-size: 20px;&quot;&gt;c[t]&lt;/font&gt;" style="text;html=1;align=center;verticalAlign=middle;whiteSpace=wrap;rounded=0;" vertex="1" parent="1">
          <mxGeometry x="480" y="665" width="60" height="30" as="geometry" />
        </mxCell>
        <mxCell id="HfVcjAnwlJ-21kZ9LWG6-31" style="edgeStyle=orthogonalEdgeStyle;rounded=0;orthogonalLoop=1;jettySize=auto;html=1;entryX=0.5;entryY=0;entryDx=0;entryDy=0;" edge="1" parent="1" source="HfVcjAnwlJ-21kZ9LWG6-18" target="HfVcjAnwlJ-21kZ9LWG6-30">
          <mxGeometry relative="1" as="geometry" />
        </mxCell>
        <mxCell id="HfVcjAnwlJ-21kZ9LWG6-18" value="&lt;font style=&quot;font-size: 80px;&quot;&gt;·&lt;/font&gt;" style="ellipse;whiteSpace=wrap;html=1;aspect=fixed;" vertex="1" parent="1">
          <mxGeometry x="495" y="600" width="30" height="30" as="geometry" />
        </mxCell>
        <mxCell id="HfVcjAnwlJ-21kZ9LWG6-28" style="edgeStyle=orthogonalEdgeStyle;rounded=0;orthogonalLoop=1;jettySize=auto;html=1;exitX=1;exitY=0.5;exitDx=0;exitDy=0;entryX=0;entryY=0.5;entryDx=0;entryDy=0;" edge="1" parent="1" source="HfVcjAnwlJ-21kZ9LWG6-21" target="HfVcjAnwlJ-21kZ9LWG6-27">
          <mxGeometry relative="1" as="geometry" />
        </mxCell>
        <mxCell id="HfVcjAnwlJ-21kZ9LWG6-21" value="&lt;span style=&quot;font-size: 20px;&quot;&gt;⨉&lt;/span&gt;" style="ellipse;whiteSpace=wrap;html=1;aspect=fixed;" vertex="1" parent="1">
          <mxGeometry x="430" y="857.5" width="40" height="40" as="geometry" />
        </mxCell>
        <mxCell id="HfVcjAnwlJ-21kZ9LWG6-24" style="edgeStyle=orthogonalEdgeStyle;rounded=0;orthogonalLoop=1;jettySize=auto;html=1;entryX=0.5;entryY=0;entryDx=0;entryDy=0;" edge="1" parent="1" source="HfVcjAnwlJ-21kZ9LWG6-22" target="HfVcjAnwlJ-21kZ9LWG6-21">
          <mxGeometry relative="1" as="geometry" />
        </mxCell>
        <mxCell id="HfVcjAnwlJ-21kZ9LWG6-22" value="&lt;font style=&quot;font-size: 20px;&quot;&gt;W&lt;/font&gt;&lt;font style=&quot;font-size: 16.6667px;&quot;&gt;x&lt;/font&gt;" style="text;html=1;align=center;verticalAlign=middle;resizable=0;points=[];autosize=1;strokeColor=none;fillColor=none;" vertex="1" parent="1">
          <mxGeometry x="425" y="792.5" width="50" height="40" as="geometry" />
        </mxCell>
        <mxCell id="HfVcjAnwlJ-21kZ9LWG6-29" style="edgeStyle=orthogonalEdgeStyle;rounded=0;orthogonalLoop=1;jettySize=auto;html=1;entryX=0.5;entryY=0;entryDx=0;entryDy=0;" edge="1" parent="1" source="HfVcjAnwlJ-21kZ9LWG6-25" target="HfVcjAnwlJ-21kZ9LWG6-27">
          <mxGeometry relative="1" as="geometry" />
        </mxCell>
        <mxCell id="HfVcjAnwlJ-21kZ9LWG6-25" value="&lt;font style=&quot;font-size: 20px;&quot;&gt;1-c[t]&lt;/font&gt;" style="text;html=1;align=center;verticalAlign=middle;whiteSpace=wrap;rounded=0;" vertex="1" parent="1">
          <mxGeometry x="480" y="750" width="60" height="30" as="geometry" />
        </mxCell>
        <mxCell id="HfVcjAnwlJ-21kZ9LWG6-32" style="edgeStyle=orthogonalEdgeStyle;rounded=0;orthogonalLoop=1;jettySize=auto;html=1;entryX=0.5;entryY=1;entryDx=0;entryDy=0;" edge="1" parent="1" source="HfVcjAnwlJ-21kZ9LWG6-27" target="HfVcjAnwlJ-21kZ9LWG6-30">
          <mxGeometry relative="1" as="geometry" />
        </mxCell>
        <mxCell id="HfVcjAnwlJ-21kZ9LWG6-27" value="&lt;font style=&quot;font-size: 80px;&quot;&gt;·&lt;/font&gt;" style="ellipse;whiteSpace=wrap;html=1;aspect=fixed;" vertex="1" parent="1">
          <mxGeometry x="495" y="862.5" width="30" height="30" as="geometry" />
        </mxCell>
        <mxCell id="HfVcjAnwlJ-21kZ9LWG6-34" style="edgeStyle=orthogonalEdgeStyle;rounded=0;orthogonalLoop=1;jettySize=auto;html=1;" edge="1" parent="1" source="HfVcjAnwlJ-21kZ9LWG6-30" target="HfVcjAnwlJ-21kZ9LWG6-33">
          <mxGeometry relative="1" as="geometry" />
        </mxCell>
        <mxCell id="HfVcjAnwlJ-21kZ9LWG6-30" value="&lt;span style=&quot;font-size: 20px;&quot;&gt;+&lt;/span&gt;" style="ellipse;whiteSpace=wrap;html=1;aspect=fixed;" vertex="1" parent="1">
          <mxGeometry x="590" y="740" width="40" height="40" as="geometry" />
        </mxCell>
        <mxCell id="HfVcjAnwlJ-21kZ9LWG6-33" value="&lt;font style=&quot;font-size: 20px;&quot;&gt;h[t]&lt;/font&gt;" style="text;html=1;align=center;verticalAlign=middle;whiteSpace=wrap;rounded=0;" vertex="1" parent="1">
          <mxGeometry x="680" y="745" width="60" height="30" as="geometry" />
        </mxCell>
      </root>
    </mxGraphModel>
  </diagram>
</mxfile>
